<?xml version="1.0" encoding="UTF-8" standalone="no"?>
<!-- Created with Inkscape (http://www.inkscape.org/) -->

<svg
   xmlns:dc="http://purl.org/dc/elements/1.1/"
   xmlns:cc="http://creativecommons.org/ns#"
   xmlns:rdf="http://www.w3.org/1999/02/22-rdf-syntax-ns#"
   xmlns:svg="http://www.w3.org/2000/svg"
   xmlns="http://www.w3.org/2000/svg"
   xmlns:sodipodi="http://sodipodi.sourceforge.net/DTD/sodipodi-0.dtd"
   xmlns:inkscape="http://www.inkscape.org/namespaces/inkscape"
   version="1.1"
   id="svg10"
   xml:space="preserve"
   width="466.66666"
   height="200"
   viewBox="0 0 466.66666 200"
   sodipodi:docname="Sako TRG.svg"
   inkscape:version="0.92.1 r15371"><metadata
     id="metadata16"><rdf:RDF><cc:Work
         rdf:about=""><dc:format>image/svg+xml</dc:format><dc:type
           rdf:resource="http://purl.org/dc/dcmitype/StillImage" /><dc:title></dc:title></cc:Work></rdf:RDF></metadata><defs
     id="defs14"><clipPath
       clipPathUnits="userSpaceOnUse"
       id="clipPath26"><path
         d="M 0,150 H 350 V 0 H 0 Z"
         id="path24"
         inkscape:connector-curvature="0" /></clipPath></defs><sodipodi:namedview
     pagecolor="#ffffff"
     bordercolor="#666666"
     borderopacity="1"
     objecttolerance="10"
     gridtolerance="10"
     guidetolerance="10"
     inkscape:pageopacity="0"
     inkscape:pageshadow="2"
     inkscape:window-width="667"
     inkscape:window-height="480"
     id="namedview12"
     showgrid="false"
     inkscape:zoom="2.6764286"
     inkscape:cx="233.33333"
     inkscape:cy="100"
     inkscape:window-x="0"
     inkscape:window-y="0"
     inkscape:window-maximized="1"
     inkscape:current-layer="g18" /><g
     id="g18"
     inkscape:groupmode="layer"
     inkscape:label="Sako TRG"
     transform="matrix(1.3333333,0,0,-1.3333333,0,200)"><g
       id="g20"><g
         id="g22"
         clip-path="url(#clipPath26)"><g
           id="g28"
           transform="translate(140.4102,49.9424)"><path
             d="M 0,0 C 0,0 0.107,0.168 0.297,0.143 V -0.692 H 0 Z m 74.513,47.167 h 0.784 l 0.228,-0.153 h 6.059 l 0.21,0.153 h 11.678 v -2.16 h -9.48 v 0.421 H 78.87 V 45.007 H 74.513 Z M 95.727,22.722 c 0,0 0.669,1.357 1.089,1.299 l 1.175,0.006 0.297,-0.667 c 0,0 0.118,-0.193 0.018,-0.204 -0.1,-0.01 -0.202,-0.014 -0.202,-0.014 l 0.108,-1.079 c 0,0 0,-0.344 0.238,-0.373 0.239,-0.029 0.659,-0.076 0.869,0.106 0.21,0.182 -0.124,1.251 -0.124,1.251 0,0 -0.114,0.249 -0.228,0.249 -0.115,0 -0.287,-0.029 -0.287,-0.029 l -0.297,0.794 8.06,0.133 0.008,-0.619 -0.193,0.004 c 0,0 0.96,-3.552 -1.434,-6.017 l 0.666,-0.254 0.191,0.261 c 0,0 0.594,-0.132 1.029,-0.193 0.433,-0.061 0.261,0.635 0.261,0.631 0,-0.004 0.251,0.054 0.251,0.054 0,0 1.229,1.694 0.835,5.134 l 0.394,-0.042 v 1.041 h 1.8 c 0,0 0.861,-0.287 0.937,-1.509 V 19.97 c 0,0 -0.114,-1.223 -1.453,-2.561 0,0 -0.763,-0.803 -1.796,-0.687 l -8.275,-0.011 c 0,0 -0.669,-0.085 -1.356,0.756 L 96.3,19.589 c 0,0 -0.573,0.381 -0.573,1.49 z m -220.389,11.819 c 0.236,-0.416 0.716,-0.738 0.716,-0.738 0,0 0.581,-0.043 0.947,0.007 0.365,0.05 0.451,0.781 0.451,0.781 l 2.315,0.007 c 0.093,-0.623 0.344,-0.788 0.344,-0.788 0,0 1.161,-0.05 1.29,0 0.129,0.05 0.294,0.774 0.294,0.774 l 2.444,-0.015 c 0.071,-0.53 0.344,-0.745 0.344,-0.745 0,0 1.046,-0.029 1.246,0 0.202,0.029 0.345,0.781 0.345,0.781 l 2.394,-0.007 c 0.071,-0.795 0.401,-0.738 0.401,-0.738 l 1.147,-0.007 c 0.666,-0.545 1.397,-0.015 1.397,-0.015 l 0.953,0.008 1.204,1.168 c 0.151,0.115 0.129,0.466 0.129,0.466 l 103.019,0.066 0.124,-3.755 0.239,-0.698 1.108,0.029 -0.028,-0.229 -2.141,-0.039 0.02,-0.764 2.083,-0.048 -0.688,-26.393 -0.383,-0.44 0.01,-1.65 0.086,-0.545 0.15,-0.151 0.021,-0.38 0.595,-0.386 -0.036,-0.567 -0.738,0.015 -1.196,0.738 c -0.359,-0.014 -0.409,-0.358 -0.409,-0.358 0,0 0.523,-0.487 0.881,-0.725 0.359,-0.236 0.732,-0.165 0.732,-0.165 l 0.516,-1.856 0.114,-0.029 -0.038,-1.328 -0.449,-1.032 -3.583,0.153 -1.358,0.65 c -0.143,-0.392 0,-0.487 0,-0.487 0.717,-0.765 1.483,-1.051 1.483,-1.051 l 0.725,-0.038 0.544,-1.243 0.431,0.039 c 0,0 0.612,0.688 1.567,0.487 1.663,-0.297 1.29,-1.176 1.29,-1.176 h 0.621 c 0,0 0.048,1.099 1.395,1.138 1.348,0.038 1.519,-0.641 1.519,-0.641 h 0.479 c 0.191,0.851 0.697,1.204 0.697,1.204 l 1.07,-0.067 c 0.765,0.345 1.367,0.966 1.367,0.966 0,0.21 -0.335,0.505 -0.335,0.505 l -1.394,-0.639 -4.043,0.162 0.112,2.814 C 0.696,-2.57 0.781,-3.523 0.781,-3.523 h 0.488 c 0,0 0.143,0.838 1.261,0.974 1.118,0.137 1.541,-0.687 1.541,-0.687 h 0.38 c 0,0 1.049,1.658 1.201,1.734 0.011,0.005 0.021,0.01 0.034,0.015 0.18,0.062 0.607,0.062 0.607,0.062 l 1.433,0.736 c 0.048,0.124 -0.19,0.257 -0.19,0.257 L 6.187,-1.062 2.26,-0.813 2.154,3.496 C 2.738,3.61 2.747,3.983 2.747,3.983 l 0.564,0.01 C 3.579,4.079 3.664,4.375 3.664,4.375 L 3.607,6.889 3.369,6.897 3.292,6.009 2.89,6.038 C 2.938,6.41 2.518,6.812 2.518,6.812 L 2.154,29.575 H 4.525 V 29.297 H 4.888 V 25.14 C 4.954,23.812 5.452,23.592 5.452,23.592 L 6.15,23.583 C 15.743,23.104 51.315,22.164 57.437,21.661 63.514,21.462 68,18.522 68,18.522 l -0.745,0.015 v -0.53 l 25.194,-2.352 0.033,0.359 0.287,0.044 0.115,4.729 c 0.259,-0.487 0.702,-3.755 0.702,-3.755 0,0 -0.129,-0.602 0.545,-0.602 0.674,0 0.631,0.817 0.631,0.817 -0.158,0.315 -0.2,1.075 -0.2,1.075 -0.015,0.688 -0.288,1.018 -0.288,1.018 1.047,0.172 1.52,-0.415 1.52,-0.415 l 2.509,-2.481 c 1.016,-1.017 2.479,-0.817 2.479,-0.817 3.884,0.201 7.669,0.144 7.669,0.144 1.419,-0.043 2.05,0.745 2.05,0.745 1.433,1.103 2.021,2.494 2.021,2.494 0.128,0.086 0.138,0.986 0.138,0.986 0,0 2.962,0.263 4.186,-0.922 1.222,-1.184 1.136,-3.662 1.136,-3.662 0.259,-0.631 1.128,-11.362 1.128,-11.362 0.058,-0.745 0.592,-0.779 0.592,-0.779 h 11.79 c 0.811,0.015 1.255,0.225 1.255,0.225 17.007,6.921 18.462,7.544 26.26,7.931 l 13.264,0.039 c 1.853,-0.307 2.122,-1.873 2.122,-1.873 0,0 0.056,-2.828 0.152,-4.11 0.095,-1.28 1.242,-1.404 1.242,-1.404 h 7.473 c 0.056,0.155 0.219,0.095 0.219,0.095 l 4.827,-0.095 c 0.094,0.114 0.21,0 0.21,0 l 4.004,0.296 c 1.834,0.487 1.805,2.58 1.805,2.58 -0.763,15.193 -0.296,27.416 -0.296,27.416 -0.325,2.15 -2.18,2.313 -2.18,2.313 -1.312,0.082 -1.24,0 -1.24,0 -0.014,-0.24 -0.272,-0.043 -0.272,-0.043 -0.968,0.036 -0.971,0 -0.971,0 -0.036,-0.151 -0.345,0 -0.345,0 -0.816,-0.1 -5.961,-0.262 -5.961,-0.262 -0.03,-0.169 -0.288,-0.039 -0.288,-0.039 -2.436,0 -8.543,-0.201 -8.543,-0.201 0,0 -0.182,1.682 -2.073,1.758 -3.479,0.077 -13.493,-0.191 -13.493,-0.191 -1.605,-1.51 -2.674,-0.033 -2.674,-0.033 -0.845,0.078 -1.607,-0.081 -1.607,-0.081 -3.135,-0.23 -14.946,-3.976 -14.946,-3.976 -0.707,-0.248 -0.344,-0.803 -0.344,-0.803 l 0.249,-0.707 c 0.382,-0.343 0.802,-3.091 0.802,-3.091 0,0 0.272,-2.479 0.344,-2.809 0.048,-0.221 0.506,-0.326 0.662,-0.353 -0.019,0.002 -0.043,0.004 -0.075,0.008 -0.471,0.058 -0.644,-0.243 -0.644,-0.243 0,0 -0.841,-4.12 -5.146,-4.945 -4.763,-0.52 -6.436,3.024 -6.436,3.024 0,0 -0.554,0.459 -3.134,5.16 -2.58,4.702 -5.274,4.773 -5.274,4.773 l -0.722,0.366 0.02,0.201 c -0.013,0.165 -0.2,0.258 -0.2,0.258 l -1.878,-0.007 c -0.157,0.129 -0.451,0.258 -0.451,0.258 l -6.092,1.935 c -0.903,-0.086 -0.822,0.349 -0.822,0.349 0,0 -0.144,1.605 -0.248,2.307 -0.106,0.703 -0.528,0.683 -0.528,0.683 -4.429,1.248 -5.507,1.434 -5.507,1.434 l -0.033,0.86 c 0.01,0.186 -0.172,0.19 -0.172,0.19 0,0 -1.33,-0.004 -1.391,-0.004 -0.061,0 -0.011,0.047 -0.011,0.047 l 0.155,0.154 -0.051,2.082 -0.308,0.255 -0.584,0.007 c -0.232,0.003 -0.24,-0.122 -0.24,-0.122 l -0.011,-0.204 -2.992,0.017 -0.172,0.345 h -1.004 l 0.058,2.107 0.73,-0.058 3.184,-1.433 3.31,-0.387 c 0.903,-0.115 1.735,0.387 1.735,0.387 l 9.274,-0.057 0.128,0.229 3.154,0.014 c 0.101,-0.415 0.387,-0.372 0.387,-0.372 0,0 1.692,-0.043 2.007,0.057 0.315,0.1 0.43,0.817 0.43,0.817 0.392,6.307 0.009,8.773 -0.047,9.174 -0.058,0.401 -0.555,0.716 -0.555,0.716 0,0 -1.921,0 -2.107,-0.057 -0.187,-0.057 -0.187,-0.344 -0.187,-0.344 l -3.11,0.043 -0.229,0.229 c 0,0 -8.702,0.036 -9.059,-0.007 -0.033,-0.004 -0.065,-0.007 -0.093,-0.009 -0.282,-0.017 -0.359,0.059 -0.359,0.059 l -0.61,0.215 c -0.157,0.115 -0.479,0.108 -0.479,0.108 l -3.87,-0.373 c 0,0 -2.452,-1.247 -2.924,-1.426 -0.474,-0.179 -0.846,0 -0.846,0 -0.065,0.237 -0.294,0.552 -0.294,0.552 -1.892,0.724 -3.168,-0.065 -3.268,-0.194 -0.101,-0.129 -0.029,-0.387 -0.029,-0.387 L 81.683,54.608 c -0.697,0.208 -0.295,0.681 -0.295,0.681 l 0.014,1.821 c -3.239,1.605 -5.791,-0.022 -5.791,-0.022 l 0.044,-1.806 c 0.394,-0.315 -0.237,-0.587 -0.237,-0.587 l -0.889,-0.058 c -0.122,0.179 -0.107,0.516 -0.107,0.516 -0.2,0.394 -3.233,0.502 -3.29,-0.014 C 71.074,54.623 70.9,54.64 70.9,54.64 L 56.634,54.702 44.297,57.991 H 30.022 c -0.3,0 -0.287,-0.229 -0.287,-0.229 0,0 0.066,-13.18 0.051,-13.452 -0.015,-0.273 0.2,-0.316 0.2,-0.316 L 44.68,43.937 56.433,47.119 H 70.93 l 0.008,-2.074 H 70.5 c -0.383,-0.077 -0.383,-0.478 -0.383,-0.478 l 0.038,-2.111 -13.326,-0.005 -0.377,-0.454 c 0,0 -36.714,-0.941 -36.728,-0.87 -0.015,0.072 -0.05,0.115 -0.05,0.115 L 7.321,41.163 C 7.21,41.138 7.267,41.041 7.267,41.041 l -4.711,-0.047 -0.057,1.5 -0.765,0.669 H -0.731 C -0.76,42.991 -0.932,43.019 -0.932,43.019 H -1.391 L -2.097,42.475 -2.155,41.07 c 0,0 -104.226,-0.478 -104.198,-0.076 0.029,0.401 -0.258,0.64 -0.258,0.64 l -1.013,1.009 h -3.65 c -0.325,-0.138 -0.248,-0.416 -0.248,-0.416 -0.201,-2.218 -2.437,-1.644 -2.437,-1.644 -0.039,1.739 -0.459,2.06 -0.459,2.06 h -1.261 c -0.239,-0.156 -0.25,-0.426 -0.25,-0.426 0.011,-1.873 -2.34,-1.72 -2.34,-1.72 -0.048,1.691 -0.431,2.146 -0.431,2.146 h -1.279 c -0.345,-0.319 -0.335,-0.637 -0.335,-0.637 -0.229,-1.834 -2.304,-1.49 -2.304,-1.49 0.011,1.777 -0.514,2.07 -0.514,2.07 0,0 -0.584,0.129 -0.896,0 -0.312,-0.129 -0.644,-0.694 -0.644,-0.694 l -0.134,-0.382 c -0.84,-3.593 0.144,-6.969 0.144,-6.969"
             style="fill:#231f20;fill-opacity:1;fill-rule:nonzero;stroke:none"
             id="path30"
             inkscape:connector-curvature="0" /></g></g></g></g></svg>